<mxfile host="app.diagrams.net" modified="2023-05-03T12:38:40.507Z" agent="Mozilla/5.0 (Windows NT 10.0; Win64; x64) AppleWebKit/537.36 (KHTML, like Gecko) Chrome/112.0.0.0 Safari/537.36" version="21.2.7" etag="kIt-PgyRLkWWJx613eVc" type="github">
  <diagram name="PÃ¡gina-1" id="OCb5O8Fc0Y8I4iMEtqYa">
    <mxGraphModel>
      <root>
        <mxCell id="0" />
        <mxCell id="1" parent="0" />
      </root>
    </mxGraphModel>
  </diagram>
</mxfile>
